<svg width="420.7800048828125px" height="124.439990234375px" xmlns="http://www.w3.org/2000/svg" viewBox="39.60999755859376 12.780004882812499 420.7800048828125 124.439990234375" style="background: none;" preserveAspectRatio="xMidYMid"><defs><filter id="editing-metal-beveled"><feGaussianBlur stdDeviation="4" in="SourceAlpha" result="blur"></feGaussianBlur><feSpecularLighting surfaceScale="5" specularConstant="0.8" specularExponent="7.5" lighting-color="#fff" in="blur" result="specular"><fePointLight x="-250" y="-50" z="300"></fePointLight></feSpecularLighting><feComposite operator="in" in="specular" in2="SourceAlpha" result="comp"></feComposite><feComposite in="SourceGraphic" in2="comp" operator="arithmetic" k1="0" k2="1" k3="1" k4="0"></feComposite></filter></defs><g filter="url(#editing-metal-beveled)"><g transform="translate(110.12912201881409, 97.46500015258789)"><path d="M14.21 0L0.51 0L8.32-42.05L8.32-42.05Q14.66-42.75 23.90-42.75L23.90-42.75L23.90-42.75Q33.15-42.75 37.44-40.06L37.44-40.06L37.44-40.06Q41.73-37.38 41.73-31.97L41.73-31.97L41.73-31.97Q41.73-26.56 38.94-23.17L38.94-23.17L38.94-23.17Q36.16-19.78 31.36-18.69L31.36-18.69L31.36-18.69Q32.45-13.38 34.94-9.09L34.94-9.09L34.94-9.09Q37.25-5.06 39.94-3.78L39.94-3.78L39.94-3.78Q38.98-1.09 37.02 0.10L37.02 0.10L37.02 0.10Q35.07 1.28 32.29 1.28L32.29 1.28L32.29 1.28Q29.50 1.28 27.33-0.35L27.33-0.35L27.33-0.35Q25.15-1.98 23.42-4.99L23.42-4.99L23.42-4.99Q19.78-11.52 19.39-21.82L19.39-21.82L19.84-21.82L19.84-21.82Q24.58-21.95 26.94-24.42L26.94-24.42L26.94-24.42Q29.31-26.88 29.31-32.06L29.31-32.06L29.31-32.06Q29.31-38.53 23.87-38.78L23.87-38.78L22.46-38.78L22.46-38.78Q21.89-38.78 21.57-38.72L21.57-38.72L14.21 0ZM72.77 1.28L72.77 1.28L72.77 1.28Q64.58 1.28 63.81-10.37L63.81-10.37L52.80-10.37L52.80-10.37Q51.52-7.42 50.62-4.86L50.62-4.86L48.96 0L40 0L60.16-42.24L73.92-42.24L76.61-11.14L76.61-11.14Q77.25-4.42 79.81-2.43L79.81-2.43L79.81-2.43Q77.95 1.28 72.77 1.28ZM58.30-23.17L54.78-15.04L63.62-15.04L62.85-31.49L62.85-33.22L58.30-23.17ZM108.54-42.69L108.54-42.69L108.54-42.69Q124.22-42.69 124.22-31.62L124.22-31.62L124.22-31.62Q124.22-25.54 120.32-21.89L120.32-21.89L120.32-21.89Q116.48-18.24 109.76-18.24L109.76-18.24L109.76-18.24Q106.62-18.24 104.19-20.03L104.19-20.03L104.19-20.03Q103.04-20.80 102.27-21.82L102.27-21.82L102.27-21.82Q106.94-21.82 109.41-24.67L109.41-24.67L109.41-24.67Q111.87-27.52 111.87-33.09L111.87-33.09L111.87-33.09Q111.87-38.66 106.37-38.66L106.37-38.66L104.83-38.66L104.83-38.66Q104.45-38.66 104.13-38.59L104.13-38.59L96.77 0L82.88 0L90.75-41.92L90.75-41.92Q97.60-42.56 101.57-42.62L101.57-42.62L101.57-42.62Q105.54-42.69 108.54-42.69ZM125.50-15.62L125.50-15.62L125.50-15.62Q125.50-27.71 131.78-35.33L131.78-35.33L131.78-35.33Q138.43-43.58 150.02-43.58L150.02-43.58L150.02-43.58Q158.40-43.58 162.62-39.52L162.62-39.52L162.62-39.52Q166.85-35.46 166.85-26.88L166.85-26.88L166.85-26.88Q166.85-13.82 160.19-6.21L160.19-6.21L160.19-6.21Q153.60 1.28 142.53 1.28L142.53 1.28L142.53 1.28Q133.89 1.28 129.70-3.04L129.70-3.04L129.70-3.04Q125.50-7.36 125.50-15.62ZM142.34-28.86L142.34-28.86L142.34-28.86Q139.46-17.34 139.46-8.26L139.46-8.26L139.46-8.26Q139.46-6.08 140.19-4.67L140.19-4.67L140.19-4.67Q140.93-3.26 142.88-3.26L142.88-3.26L142.88-3.26Q144.83-3.26 146.05-4.19L146.05-4.19L146.05-4.19Q147.26-5.12 148.22-7.23L148.22-7.23L148.22-7.23Q149.76-10.69 151.20-18.02L151.20-18.02L151.20-18.02Q152.64-25.34 152.77-28.38L152.77-28.38L152.77-28.38Q152.90-31.42 152.90-33.73L152.90-33.73L152.90-33.73Q152.90-36.03 152.19-37.50L152.19-37.50L152.19-37.50Q151.49-38.98 149.60-38.98L149.60-38.98L149.60-38.98Q147.71-38.98 146.43-37.82L146.43-37.82L146.43-37.82Q144.06-35.65 142.34-28.86ZM183.10 0L169.41 0L177.22-42.05L177.22-42.05Q183.55-42.75 192.80-42.75L192.80-42.75L192.80-42.75Q202.05-42.75 206.34-40.06L206.34-40.06L206.34-40.06Q210.62-37.38 210.62-31.97L210.62-31.97L210.62-31.97Q210.62-26.56 207.84-23.17L207.84-23.17L207.84-23.17Q205.06-19.78 200.26-18.69L200.26-18.69L200.26-18.69Q201.34-13.38 203.84-9.09L203.84-9.09L203.84-9.09Q206.14-5.06 208.83-3.78L208.83-3.78L208.83-3.78Q207.87-1.09 205.92 0.10L205.92 0.10L205.92 0.10Q203.97 1.28 201.18 1.28L201.18 1.28L201.18 1.28Q198.40 1.28 196.22-0.35L196.22-0.35L196.22-0.35Q194.05-1.98 192.32-4.99L192.32-4.99L192.32-4.99Q188.67-11.52 188.29-21.82L188.29-21.82L188.74-21.82L188.74-21.82Q193.47-21.95 195.84-24.42L195.84-24.42L195.84-24.42Q198.21-26.88 198.21-32.06L198.21-32.06L198.21-32.06Q198.21-38.53 192.77-38.78L192.77-38.78L191.36-38.78L191.36-38.78Q190.78-38.78 190.46-38.72L190.46-38.72L183.10 0ZM218.69-31.17L218.69-31.17L218.69-31.17Q216.51-32.83 216.51-36.38L216.51-36.38L216.51-36.38Q216.51-39.94 218.85-41.79L218.85-41.79L218.85-41.79Q221.18-43.65 225.22-43.65L225.22-43.65L225.22-43.65Q227.78-43.65 233.86-42.75L233.86-42.75L238.21-42.11L238.21-42.11Q240.38-41.86 242.66-41.86L242.66-41.86L242.66-41.86Q244.93-41.86 246.46-42.82L246.46-42.82L246.46-42.82Q248.77-40.77 248.77-37.82L248.77-37.82L248.77-37.82Q248.77-34.88 246.14-32.77L246.14-32.77L246.14-32.77Q243.46-30.53 240.00-30.53L240.00-30.53L240.00-30.53Q238.34-30.53 235.65-30.98L235.65-30.98L235.65-30.98Q232.51-21.12 232.51-14.27L232.51-14.27L232.51-14.27Q232.51-7.42 235.97-3.84L235.97-3.84L235.97-3.84Q234.37-0.96 232.00 0.16L232.00 0.16L232.00 0.16Q229.63 1.28 226.08 1.28L226.08 1.28L226.08 1.28Q222.53 1.28 220.32-0.67L220.32-0.67L220.32-0.67Q218.11-2.62 218.11-6.66L218.11-6.66L218.11-6.66Q218.11-11.33 220.67-19.01L220.67-19.01L220.67-19.01Q223.23-26.62 227.07-32.45L227.07-32.45L227.07-32.45Q225.22-32.64 223.30-32.64L223.30-32.64L223.30-32.64Q219.33-32.64 218.69-31.17ZM252.80 0L256.51-18.82L256.51-18.82Q254.66-36.16 248.13-39.87L248.13-39.87L248.13-39.87Q249.47-41.54 251.65-42.46L251.65-42.46L251.65-42.46Q253.82-43.39 256.45-43.39L256.45-43.39L256.45-43.39Q259.07-43.39 261.06-42.46L261.06-42.46L261.06-42.46Q263.04-41.54 264.32-39.55L264.32-39.55L264.32-39.55Q266.75-35.78 266.75-26.75L266.75-26.75L266.75-22.14L266.75-22.14Q270.59-33.41 274.43-38.27L274.43-38.27L274.43-38.27Q278.34-43.26 283.20-43.26L283.20-43.26L283.20-43.26Q285.12-43.26 286.40-42.27L286.40-42.27L286.40-42.27Q287.68-41.28 288.32-39.81L288.32-39.81L288.32-39.81Q283.39-37.63 278.66-31.36L278.66-31.36L278.66-31.36Q273.92-25.09 270.85-16.32L270.85-16.32L267.07 0L252.80 0Z" fill="#444"></path></g></g><style>text {
  font-size: 64px;
  font-family: Arial Black;
  dominant-baseline: central;
  text-anchor: middle;
}</style></svg>